<svg width="170" height="302" viewBox="0 0 170 302" fill="none" xmlns="http://www.w3.org/2000/svg">
<path d="M98.4783 289.4L91.6783 275.7L94.5783 272.6C98.6783 268.3 99.7783 265.8 99.7783 261.1C99.7783 258.5 100.278 257 101.078 257C101.678 257 108.578 256.1 116.178 255C130.078 253 132.778 253.2 132.778 256.4C132.778 257.6 108.278 299.7 106.378 301.7C105.478 302.7 103.678 299.9 98.4783 289.4Z" fill="#EDEDED"/>
<path d="M47.1783 284.3C32.4783 260 31.2783 257.7 32.0783 255.5C32.6783 254 33.5783 253.8 38.2783 254.3L43.7783 254.9V243.7C43.7783 232.7 43.7783 232.6 40.7783 229.5C36.6783 225.3 32.4783 214.6 29.2783 200.6C26.2783 187.2 25.6783 177.3 27.8783 176C29.7783 174.8 29.9783 175.3 33.7783 192C37.3783 208.1 40.8783 219.3 43.7783 224.3C47.3783 230.4 55.5783 233.7 72.0783 235.5C76.2783 236 77.7783 236.5 77.7783 237.7C77.7783 239.1 76.4783 239.2 67.3783 238.6C61.5783 238.2 54.7783 237.3 52.0783 236.5C49.4783 235.7 47.1783 235 46.9783 235C46.8783 235 46.8783 239.6 46.9783 245.3L47.2783 255.5L56.0783 256.4L64.7783 257.2V261.2C64.7783 265.7 67.8783 272.5 70.7783 274C72.6783 275 72.3783 275.7 65.9783 288.5C62.3783 295.9 58.9783 302 58.5783 302C58.2783 302 53.0783 294 47.1783 284.3Z" fill="#EDEDED"/>
<path d="M118.078 224.8C118.378 223.5 120.578 214.4 122.878 204.5C125.178 194.6 127.478 186 127.978 185.3C129.378 183.5 131.778 184.9 131.778 187.5C131.778 191.4 126.878 216.3 125.178 220.8C123.678 224.8 121.378 227 118.778 227C117.978 227 117.778 226.1 118.078 224.8Z" fill="#EDEDED"/>
<path d="M45.0783 214.7C44.1783 212.7 43.7783 205.5 43.7783 190.5C43.7783 170 43.6783 169.1 41.7783 168.5C38.7783 167.6 33.8783 163.2 32.2783 159.9C31.4783 158.4 30.7783 154.6 30.7783 151.4C30.7783 140.2 38.0783 133 49.3783 133C72.3783 133 74.1783 167.2 51.2783 169.7L46.7783 170.3L46.5783 193.8C46.2783 213.6 46.0783 217 45.0783 214.7Z" fill="#EDEDED"/>
<path d="M71.1783 211.5C70.7783 210.6 70.9783 209.4 71.4783 208.9C72.7783 207.6 92.3783 208.2 91.9783 209.5C91.6783 210.9 88.6783 211.6 79.4783 212.4C72.8783 213 71.6783 212.9 71.1783 211.5Z" fill="#EDEDED"/>
<path d="M52.7783 201.1C52.7783 200.7 54.0783 198.5 55.6783 196.3C63.0783 186.1 78.7783 185.6 78.7783 195.5C78.7783 201.6 75.0783 203 64.4783 200.9C60.4783 200.1 58.0783 200.1 55.8783 200.8C54.1783 201.4 52.7783 201.5 52.7783 201.1Z" fill="#EDEDED"/>
<path d="M87.7783 200C83.8783 196.1 86.2783 189.9 92.3783 188.4C97.9783 187 107.178 191.9 110.278 198.1C112.278 201.9 112.178 202.1 108.678 200.8C106.478 200.1 104.078 200.1 100.078 200.9C92.1783 202.4 90.0783 202.3 87.7783 200Z" fill="#EDEDED"/>
<path d="M16.8783 192.2C15.7783 190.2 12.4783 156 13.2783 155.2C13.5783 154.9 14.0783 154.9 14.3783 155.2C14.8783 155.8 20.7783 190 20.7783 192.8C20.7783 194.6 17.9783 194.2 16.8783 192.2Z" fill="#EDEDED"/>
<path d="M137.778 193C137.778 192.4 139.578 185.4 141.878 177.2C148.878 152.3 149.678 151.8 146.378 174.8C145.078 183.7 143.478 191.7 142.778 192.5C141.378 194.2 137.778 194.5 137.778 193Z" fill="#EDEDED"/>
<path d="M77.9783 182.8C76.2783 181.1 76.2783 150.9 77.9783 149.2C78.6783 148.5 80.5783 148 82.2783 148C87.4783 148 87.7783 149 87.7783 166C87.7783 183 87.4783 184 82.2783 184C80.5783 184 78.6783 183.5 77.9783 182.8Z" fill="#EDEDED"/>
<path d="M65.7783 180.6C65.7783 179.1 66.8783 177.3 68.5783 176L71.2783 173.8L71.5783 176.3C71.9783 179.8 70.1783 183 67.7783 183C66.3783 183 65.7783 182.3 65.7783 180.6Z" fill="#EDEDED"/>
<path d="M94.3783 181.4C93.4783 180.6 92.7783 178.5 92.7783 177C92.7783 174.2 92.9783 174.1 95.1783 175.1C97.6783 176.3 100.178 180.5 99.2783 182.1C98.3783 183.5 96.0783 183.2 94.3783 181.4Z" fill="#EDEDED"/>
<path d="M100.478 155.4C99.2783 154.1 99.6783 148.3 101.178 147.1C102.178 146.3 104.878 146.6 112.178 148.4C117.578 149.7 122.178 151.1 122.578 151.5C122.878 151.8 122.678 152.9 122.178 153.8C121.278 155.2 119.178 155.6 111.078 155.8C105.678 155.9 100.878 155.8 100.478 155.4Z" fill="#EDEDED"/>
<path d="M165.378 136.4C155.478 129.6 138.078 123.8 116.378 119.8C98.7783 116.6 62.7783 116.5 45.1783 119.7C30.8783 122.3 15.8783 126.9 6.5783 131.6C-2.4217 136.2 -2.1217 134.4 7.0783 129.2C26.5783 118.1 47.0783 113.3 79.2783 112.3C110.078 111.4 132.278 115.1 151.278 124.5C159.678 128.6 170.978 137.1 169.678 138.4C169.378 138.7 167.478 137.8 165.378 136.4Z" fill="#EDEDED"/>
<path d="M18.1783 110.3C18.4783 109.3 19.1783 103.7 19.6783 97.7C21.8783 75.1 17.2783 50.3 6.77829 27.4C4.57829 22.7 2.77829 18.6 2.77829 18.4C2.77829 17.5 12.4783 12.6 19.8783 9.9C35.8783 4.1 57.1783 0.1 72.3783 0H80.4783L81.0783 10.3C82.4783 31.7 83.6783 62.2 83.9783 81.5L84.2783 101.5L81.5783 101.8L78.7783 102.1V84.9C78.7783 68.4 77.3783 35 75.9783 15.5L75.2783 6.5L69.5783 6.2C62.7783 5.8 63.0783 4.3 65.2783 23.3C66.5783 35.4 69.4783 100.7 68.6783 101.4C68.4783 101.6 65.1783 102 61.2783 102.4L54.2783 103.1L54.1783 81.3C54.0783 68.1 53.3783 53.6 52.3783 44.5C50.4783 27.4 47.8783 9.8 47.2783 9.2C46.5783 8.4 29.8783 13.3 26.7783 15.1C19.5783 19.5 17.8783 29.5 21.8783 44C26.0783 59.2 27.1783 67.2 27.1783 83C27.2783 91.5 26.8783 101.1 26.4783 104.2C25.7783 109.3 25.3783 109.9 22.5783 110.9C18.2783 112.4 17.5783 112.3 18.1783 110.3Z" fill="#EDEDED"/>
<path d="M135.078 107.2C134.278 106.7 133.378 101.7 132.778 94.2C130.778 71.2 134.278 49.6 143.478 27.7C145.978 21.8 147.878 16.7 147.678 16.5C147.378 16.3 144.578 14.5 141.278 12.6C134.178 8.3 136.478 8 146.278 11.8C154.778 15.2 154.778 15.5 148.878 28.8C139.978 48.8 136.078 69 137.178 90C137.478 96.9 138.078 103.7 138.378 105.3C139.078 108.1 137.678 108.9 135.078 107.2Z" fill="#EDEDED"/>
</svg>
